<svg height="512pt" viewBox="-59 0 511 512" width="512pt" xmlns="http://www.w3.org/2000/svg"><path d="m392.5 196.1875c0-108.175781-87.925781-196.1875-196-196.1875s-196 88.011719-196 196.1875v107.113281c0 .109375.015625.21875.015625.332031 0 .222657-.015625.445313-.015625.667969 0 45.804688 37.234375 83.070313 83 83.070313 8.285156 0 15-6.71875 15-15v-136.140625c0-8.285157-6.714844-15-15-15-20.132812 0-38.613281 7.214843-53 19.195312v-44.238281c0-91.636719 74.46875-166.1875 166-166.1875s166 74.550781 166 166.1875v44.238281c-14.386719-11.980469-32.867188-19.195312-53-19.195312-8.285156 0-15 6.714843-15 15v136.140625c0 8.28125 6.714844 15 15 15 19.605469 0 37.632812-6.855469 51.847656-18.273438-7.839844 58.839844-55.132812 105.375-114.324218 112.066406.632812-2.804687.976562-5.71875.976562-8.714843 0-21.78125-17.71875-39.5-39.5-39.5h-24c-21.78125 0-39.5 17.71875-39.5 39.550781 0 21.78125 17.71875 39.5 39.5 39.5h47.808594c88.328125 0 160.191406-71.863281 160.191406-160.191406zm0 0"/></svg>